<svg width="100" height="100" viewBox="0 0 100 100" fill="none" xmlns="http://www.w3.org/2000/svg">
<g clip-path="url(#clip0_53_470)">
<path d="M0 0V33.0888V33.8214V66.1786V66.9112V100H100V66.9112V66.1786V33.8214V33.0888V0H0Z" fill="#00008B"/>
<path d="M25.554 57.0684L28.125 63.5456L34.82 61.506L31.331 67.5436L37.108 71.4773L30.187 72.5288L30.696 79.4733L25.554 74.7476L20.412 79.4733L20.922 72.5288L14 71.4773L19.777 67.5436L16.289 61.506L22.983 63.5456L25.554 57.0684Z" fill="white"/>
<path d="M59.424 33.6128L60.408 36.093L62.971 35.3118L61.636 37.6237L63.848 39.1296L61.198 39.5326L61.393 42.191L59.424 40.3821L57.455 42.191L57.65 39.5326L55 39.1296L57.212 37.6237L55.876 35.3118L58.439 36.093L59.424 33.6128Z" fill="white"/>
<path d="M71.669 12.2505L72.654 14.7297L75.217 13.9495L73.881 16.2614L76.093 17.7673L73.443 18.1693L73.638 20.8287L71.669 19.0198L69.7 20.8287L69.895 18.1693L67.245 17.7673L69.457 16.2614L68.122 13.9495L70.685 14.7297L71.669 12.2505Z" fill="white"/>
<path d="M88.221 29.3237L89.205 31.8029L91.769 31.0227L90.433 33.3346L92.645 34.8406L89.995 35.2435L90.19 37.9019L88.221 36.093L86.252 37.9019L86.447 35.2435L83.797 34.8406L86.009 33.3346L84.673 31.0227L87.237 31.8029L88.221 29.3237Z" fill="white"/>
<path d="M71.669 65.4277L72.654 67.9079L75.217 67.1267L73.881 69.4386L76.093 70.9446L73.443 71.3475L73.638 74.006L71.669 72.197L69.7 74.006L69.895 71.3475L67.245 70.9446L69.457 69.4386L68.122 67.1267L70.685 67.9079L71.669 65.4277Z" fill="white"/>
<mask id="mask0_53_470" style="mask-type:luminance" maskUnits="userSpaceOnUse" x="0" y="0" width="50" height="42">
<path d="M50 0H0V41.5842H50V0Z" fill="white"/>
</mask>
<g mask="url(#mask0_53_470)">
<path d="M49.52 45.8823L-5.28528 0.301271L-2.90393 -7.51636L51.9013 38.0656L49.52 45.8823Z" fill="white"/>
<path d="M49.9664 44.417L-4.83887 -1.16403L-4.14358 -3.44641L50.6617 42.1347L49.9664 44.417Z" fill="#FF0000"/>
<mask id="mask1_53_470" style="mask-type:luminance" maskUnits="userSpaceOnUse" x="25" y="12" width="29" height="37">
<path d="M53.4853 12.0217H25.2448V48.749H53.4853V12.0217Z" fill="white"/>
</mask>
<g mask="url(#mask1_53_470)">
<path d="M-2.90393 -7.51636L51.9013 38.0656L49.52 45.8823L-5.28528 0.301271L-2.90393 -7.51636Z" fill="white"/>
<path d="M-3.35 -6.05103L51.4553 39.53L50.76 41.8124L-4.04529 -3.76864L-3.35 -6.05103Z" fill="#FF0000"/>
</g>
<mask id="mask2_53_470" style="mask-type:luminance" maskUnits="userSpaceOnUse" x="-2" y="-4" width="28" height="48">
<path d="M25.5865 -3.44641H-1.94324V43.3306H25.5865V-3.44641Z" fill="white"/>
</mask>
<g mask="url(#mask2_53_470)">
<path d="M49.5199 45.8822L-5.2854 0.301149L-2.90405 -7.51648L51.9012 38.0655L49.5199 45.8822Z" fill="white"/>
<path d="M49.9663 44.4169L-4.83899 -1.16415L-4.1437 -3.44653L50.6616 42.1345L49.9663 44.4169Z" fill="#FF0000"/>
</g>
<mask id="mask3_53_470" style="mask-type:luminance" maskUnits="userSpaceOnUse" x="25" y="12" width="29" height="37">
<path d="M53.4853 12.0217H25.2448V48.749H53.4853V12.0217Z" fill="white"/>
</mask>
<g mask="url(#mask3_53_470)">
<path d="M-2.90393 -7.51636L51.9013 38.0656L49.52 45.8823L-5.28528 0.301271L-2.90393 -7.51636Z" fill="white"/>
<path d="M-3.35 -6.05103L51.4553 39.53L50.76 41.8124L-4.04529 -3.76864L-3.35 -6.05103Z" fill="#FF0000"/>
</g>
<mask id="mask4_53_470" style="mask-type:luminance" maskUnits="userSpaceOnUse" x="-2" y="-4" width="28" height="48">
<path d="M25.5865 -3.44641H-1.94324V43.3306H25.5865V-3.44641Z" fill="white"/>
</mask>
<g mask="url(#mask4_53_470)">
<path d="M49.5199 45.8822L-5.2854 0.301149L-2.90405 -7.51648L51.9012 38.0655L49.5199 45.8822Z" fill="white"/>
<path d="M49.9663 44.4169L-4.83899 -1.16415L-4.1437 -3.44653L50.6616 42.1345L49.9663 44.4169Z" fill="#FF0000"/>
</g>
<mask id="mask5_53_470" style="mask-type:luminance" maskUnits="userSpaceOnUse" x="26" y="-3" width="25" height="52">
<path d="M50.305 -2.42749H26.0138V48.75H50.305V-2.42749Z" fill="white"/>
</mask>
<g mask="url(#mask5_53_470)">
<path d="M53.5742 -7.51636L-1.23108 38.0656L1.15087 45.8823L55.9555 0.301271L53.5742 -7.51636Z" fill="white"/>
<path d="M54.0207 -6.05103L-0.784546 39.53L-0.0892606 41.8124L54.716 -3.76864L54.0207 -6.05103Z" fill="#FF0000"/>
</g>
<mask id="mask6_53_470" style="mask-type:luminance" maskUnits="userSpaceOnUse" x="-2" y="-4" width="29" height="48">
<path d="M26.5328 -3.44641H-1.43567V43.3306H26.5328V-3.44641Z" fill="white"/>
</mask>
<g mask="url(#mask6_53_470)">
<path d="M1.15075 45.8822L55.9554 0.301149L53.5741 -7.51648L-1.2312 38.0655L1.15075 45.8822Z" fill="white"/>
<path d="M0.704196 44.4169L55.5095 -1.16415L54.8142 -3.44653L0.00891113 42.1345L0.704196 44.4169Z" fill="#FF0000"/>
</g>
<path d="M50.4896 13.804H-0.00012207V27.6526H50.4896V13.804Z" fill="white"/>
<path d="M29.3152 -0.129639H20.9346V41.5842H29.3152V-0.129639Z" fill="white"/>
<path d="M27.7365 -0.129639H22.5134V41.5842H27.7365V-0.129639Z" fill="#FF0000"/>
<path d="M50.4896 16.4132H-0.00012207V25.0425H50.4896V16.4132Z" fill="#FF0000"/>
</g>
</g>
<defs>
<clipPath id="clip0_53_470">
<rect width="100" height="100" rx="50" fill="white"/>
</clipPath>
</defs>
</svg>
