<svg width="100" height="100" viewBox="0 0 100 100" fill="none" xmlns="http://www.w3.org/2000/svg">
<g clip-path="url(#clip0_5_169)">
<path fill-rule="evenodd" clip-rule="evenodd" d="M100 0V100H0V0H100Z" fill="#009C37"/>
<path fill-rule="evenodd" clip-rule="evenodd" d="M43.5325 59.3478L43.7004 60.0052L43.1275 59.6424L42.5548 60.0052L42.7228 59.3478L42.2008 58.9146L42.8775 58.8714L43.1275 58.2406L43.3779 58.8714L44.0544 58.9146L43.5325 59.3478Z" fill="white"/>
<path fill-rule="evenodd" clip-rule="evenodd" d="M38.082 54.0678L38.25 54.7258L37.6771 54.3624L37.1044 54.7258L37.2721 54.0678L36.7504 53.6352L37.4269 53.5918L37.6771 52.9612L37.9273 53.5918L38.6038 53.6352L38.082 54.0678Z" fill="white"/>
<path fill-rule="evenodd" clip-rule="evenodd" d="M36.6448 46.8024L36.8127 47.4598L36.24 47.0968L35.6671 47.4598L35.8351 46.8024L35.3131 46.3693L35.9898 46.326L36.24 45.6952L36.4901 46.326L37.1667 46.3693L36.6448 46.8024Z" fill="white"/>
<path d="M91.9194 49.5L50.4597 76L9 49.5L50.4597 23L91.9194 49.5Z" fill="#FEE000"/>
<path d="M50.4596 32C60.1137 32 67.9427 39.8366 67.9427 49.5001C67.9427 59.1636 60.1137 67 50.4596 67C40.8056 67 32.9767 59.1634 32.9767 49.5001C32.9767 39.8367 40.8056 32 50.4596 32Z" fill="#002277"/>
<path fill-rule="evenodd" clip-rule="evenodd" d="M56.2087 43.561L56.3766 44.2185L55.8041 43.8554L55.2312 44.2185L55.3993 43.561L54.8772 43.128L55.554 43.0846L55.8041 42.4539L56.054 43.0846L56.7307 43.128L56.2087 43.561Z" fill="white"/>
<path fill-rule="evenodd" clip-rule="evenodd" d="M54.8485 48.5581L54.969 49.031L54.5572 48.7699L54.145 49.031L54.2661 48.5581L53.8904 48.2466L54.3771 48.2155L54.5572 47.7618L54.7371 48.2155L55.2238 48.2466L54.8485 48.5581Z" fill="white"/>
<path fill-rule="evenodd" clip-rule="evenodd" d="M36.6447 46.8024L36.8127 47.4598L36.2401 47.0968L35.6673 47.4598L35.8354 46.8024L35.3132 46.3693L35.9901 46.326L36.2401 45.6952L36.49 46.326L37.1667 46.3693L36.6447 46.8024Z" fill="white"/>
<path fill-rule="evenodd" clip-rule="evenodd" d="M43.9796 50.3538L44.1214 50.9085L43.6379 50.6023L43.1545 50.9085L43.2964 50.3538L42.8558 49.9879L43.4268 49.9516L43.6379 49.4194L43.8492 49.9516L44.4201 49.9879L43.9796 50.3538Z" fill="white"/>
<path fill-rule="evenodd" clip-rule="evenodd" d="M39.4974 52.8533L39.5879 53.2073L39.2794 53.0119L38.9711 53.2073L39.0614 52.8533L38.7804 52.6201L39.1446 52.5968L39.2794 52.2571L39.4142 52.5968L39.7786 52.6201L39.4974 52.8533Z" fill="white"/>
<path fill-rule="evenodd" clip-rule="evenodd" d="M38.0819 54.0684L38.2498 54.7258L37.6773 54.3628L37.1044 54.7258L37.2725 54.0684L36.7504 53.6353L37.4272 53.5919L37.6773 52.9612L37.9272 53.5919L38.6038 53.6353L38.0819 54.0684Z" fill="white"/>
<path fill-rule="evenodd" clip-rule="evenodd" d="M36.1879 55.5557L36.3296 56.1105L35.8463 55.8043L35.3629 56.1105L35.5046 55.5557L35.0642 55.1904L35.635 55.1537L35.8463 54.6212L36.0574 55.1537L36.6283 55.1904L36.1879 55.5557Z" fill="white"/>
<path fill-rule="evenodd" clip-rule="evenodd" d="M41.5537 55.692L41.6954 56.2471L41.2122 55.9406L40.7289 56.2471L40.8705 55.692L40.4302 55.3265L41.0011 55.29L41.2122 54.7577L41.4233 55.29L41.9941 55.3265L41.5537 55.692Z" fill="white"/>
<path fill-rule="evenodd" clip-rule="evenodd" d="M40.8711 57.5163L40.9918 57.9892L40.5798 57.728L40.1678 57.9892L40.2886 57.5163L39.9132 57.2048L40.3999 57.1738L40.5798 56.7197L40.7598 57.1738L41.2465 57.2048L40.8711 57.5163Z" fill="white"/>
<path fill-rule="evenodd" clip-rule="evenodd" d="M43.5324 59.3478L43.7004 60.0052L43.1278 59.6422L42.555 60.0052L42.7231 59.3478L42.2009 58.9148L42.8778 58.8714L43.1278 58.2406L43.3777 58.8714L44.0544 58.9148L43.5324 59.3478Z" fill="white"/>
<path fill-rule="evenodd" clip-rule="evenodd" d="M50.7026 63.4665L50.7675 63.7193L50.547 63.5797L50.3269 63.7193L50.3915 63.4665L50.1909 63.3002L50.4509 63.2832L50.547 63.0406L50.6434 63.2832L50.9035 63.3002L50.7026 63.4665Z" fill="white"/>
<path fill-rule="evenodd" clip-rule="evenodd" d="M50.9334 52.7045L51.0749 53.2594L50.5915 52.953L50.1081 53.2594L50.2498 52.7045L49.8094 52.339L50.3804 52.3023L50.5915 51.7701L50.8028 52.3023L51.3736 52.339L50.9334 52.7045Z" fill="white"/>
<path fill-rule="evenodd" clip-rule="evenodd" d="M52.5321 54.2017L52.674 54.7567L52.1908 54.4501L51.7074 54.7567L51.8489 54.2017L51.4086 53.8364L51.9793 53.7997L52.1908 53.2676L52.4019 53.7997L52.9729 53.8364L52.5321 54.2017Z" fill="white"/>
<path fill-rule="evenodd" clip-rule="evenodd" d="M49.6635 55.2886L49.754 55.6426L49.4455 55.4474L49.1371 55.6426L49.2275 55.2886L48.9463 55.0556L49.3107 55.0323L49.4455 54.6924L49.5802 55.0323L49.9446 55.0556L49.6635 55.2886Z" fill="white"/>
<path fill-rule="evenodd" clip-rule="evenodd" d="M48.461 54.3854L48.5817 54.8583L48.1697 54.5971L47.7577 54.8583L47.8784 54.3854L47.5031 54.0736L47.9898 54.0427L48.1697 53.5889L48.3496 54.0427L48.8363 54.0736L48.461 54.3854Z" fill="white"/>
<path fill-rule="evenodd" clip-rule="evenodd" d="M50.8944 57.8317L51.0623 58.4891L50.4898 58.1261L49.9169 58.4891L50.085 57.8317L49.5629 57.3986L50.2397 57.3553L50.4898 56.7245L50.7396 57.3553L51.4163 57.3986L50.8944 57.8317Z" fill="white"/>
<path fill-rule="evenodd" clip-rule="evenodd" d="M54.3857 59.5713L54.5062 60.0445L54.0944 59.7833L53.6824 60.0445L53.8031 59.5713L53.4276 59.2601L53.9143 59.2289L54.0944 58.7754L54.2743 59.2289L54.7609 59.2601L54.3857 59.5713Z" fill="white"/>
<path fill-rule="evenodd" clip-rule="evenodd" d="M55.8693 61.7486L56.011 62.3037L55.5278 61.9971L55.0442 62.3037L55.1861 61.7486L54.7457 61.3835L55.3165 61.3466L55.5278 60.8145L55.7385 61.3466L56.3097 61.3835L55.8693 61.7486Z" fill="white"/>
<path fill-rule="evenodd" clip-rule="evenodd" d="M57.4149 60.0119L57.5358 60.4846L57.1238 60.2237L56.7116 60.4846L56.8325 60.0119L56.4572 59.7005L56.9435 59.6693L57.1238 59.2155L57.3035 59.6693L57.7902 59.7005L57.4149 60.0119Z" fill="white"/>
<path fill-rule="evenodd" clip-rule="evenodd" d="M59.4995 63.1428L59.6203 63.6159L59.2084 63.3546L58.7964 63.6159L58.917 63.1428L58.5416 62.8315L59.0285 62.8002L59.2084 62.3466L59.388 62.8002L59.8751 62.8315L59.4995 63.1428Z" fill="white"/>
<path fill-rule="evenodd" clip-rule="evenodd" d="M59.5705 61.3242L59.7121 61.8789L59.2286 61.5725L58.7452 61.8789L58.8871 61.3242L58.4469 60.9585L59.0177 60.9222L59.2286 60.3896L59.4397 60.9222L60.0108 60.9585L59.5705 61.3242Z" fill="white"/>
<path fill-rule="evenodd" clip-rule="evenodd" d="M59.4721 59.6063L59.5932 60.079L59.181 59.8181L58.7692 60.079L58.8897 59.6063L58.5145 59.2946L59.0011 59.2634L59.181 58.8097L59.3611 59.2634L59.8478 59.2946L59.4721 59.6063Z" fill="white"/>
<path fill-rule="evenodd" clip-rule="evenodd" d="M61.1991 59.6229L61.3198 60.0962L60.9078 59.835L60.4958 60.0962L60.6167 59.6229L60.241 59.3118L60.7277 59.2806L60.9078 58.8269L61.0877 59.2806L61.5744 59.3118L61.1991 59.6229Z" fill="white"/>
<path fill-rule="evenodd" clip-rule="evenodd" d="M62.8822 58.9012L63.0241 59.4556L62.5407 59.1495L62.0572 59.4556L62.199 58.9012L61.7587 58.5354L62.3296 58.499L62.5407 57.9667L62.7517 58.499L63.3226 58.5354L62.8822 58.9012Z" fill="white"/>
<path fill-rule="evenodd" clip-rule="evenodd" d="M63.709 57.5126L63.8509 58.0671L63.3671 57.7611L62.8838 58.0671L63.0256 57.5126L62.5854 57.1469L63.1562 57.1104L63.3672 56.5782L63.5784 57.1104L64.1494 57.1469L63.709 57.5126Z" fill="white"/>
<path fill-rule="evenodd" clip-rule="evenodd" d="M63.08 55.8129L63.248 56.4703L62.6754 56.1073L62.1026 56.4703L62.2707 55.8129L61.7485 55.3798L62.4254 55.3365L62.6754 54.7057L62.9253 55.3365L63.602 55.3798L63.08 55.8129Z" fill="white"/>
<path fill-rule="evenodd" clip-rule="evenodd" d="M65.5255 55.9276L65.6463 56.4005L65.2343 56.1395L64.8221 56.4005L64.9431 55.9276L64.5676 55.6165L65.0542 55.5849L65.2343 55.1312L65.4142 55.5849L65.9007 55.6165L65.5255 55.9276Z" fill="white"/>
<path fill-rule="evenodd" clip-rule="evenodd" d="M40.0161 44.1055C37.864 44.1055 35.7492 44.2694 33.683 44.5853C33.9355 43.7201 34.2539 42.8828 34.6315 42.0781C36.3973 41.862 38.1937 41.7484 40.0163 41.7484C50.5267 41.7484 60.1991 45.4485 67.7993 51.61C67.6883 52.5064 67.5096 53.3825 67.2669 54.2322C59.9361 47.9257 50.4086 44.1055 40.0161 44.1055L40.0161 44.1055Z" fill="white"/>
<path fill-rule="evenodd" clip-rule="evenodd" d="M35.5177 43.1979C35.5323 43.3688 35.582 43.4983 35.6659 43.5865C35.7498 43.6747 35.8599 43.7126 35.9963 43.7009C36.1339 43.6891 36.237 43.6327 36.3056 43.5314C36.3741 43.4304 36.4007 43.2942 36.3861 43.1233C36.3714 42.9527 36.3219 42.8232 36.2372 42.7352C36.1524 42.647 36.0412 42.6091 35.9036 42.6209C35.7674 42.6327 35.6652 42.689 35.5975 42.7899C35.5298 42.8904 35.5031 43.0264 35.5177 43.1979L35.5177 43.1979ZM35.1924 43.2258C35.1709 42.9749 35.2222 42.7701 35.346 42.6112C35.4699 42.4523 35.6477 42.3625 35.8796 42.3428C36.1112 42.3228 36.3019 42.3807 36.452 42.5165C36.602 42.6523 36.6876 42.8453 36.7091 43.0954C36.7306 43.3457 36.6791 43.5508 36.5544 43.7101C36.4296 43.8694 36.2516 43.9592 36.0201 43.9789C35.7882 43.9989 35.5977 43.941 35.4484 43.8052C35.2993 43.6694 35.2139 43.4762 35.1924 43.2258H35.1924ZM37.7262 42.9356L38.1028 42.9231C38.1842 42.9203 38.2436 42.9015 38.2811 42.8673C38.3181 42.8328 38.3356 42.78 38.3331 42.7088C38.3309 42.6412 38.3106 42.5906 38.2721 42.5567C38.2337 42.523 38.1773 42.5075 38.1037 42.51L37.7125 42.523L37.7262 42.9356H37.7262ZM37.4351 43.8228L37.3831 42.265L38.138 42.2397C38.3076 42.2339 38.4346 42.2662 38.5187 42.3361C38.6031 42.4059 38.6475 42.5158 38.6524 42.6652C38.6556 42.7601 38.6383 42.8403 38.6006 42.9051C38.5631 42.97 38.507 43.0152 38.4332 43.0409C38.5018 43.0628 38.5509 43.0977 38.5814 43.146C38.6115 43.1945 38.6304 43.2709 38.6381 43.3752L38.6508 43.5588C38.6508 43.5603 38.6508 43.5625 38.651 43.5653C38.6558 43.6581 38.678 43.714 38.7169 43.7322L38.7184 43.78L38.3672 43.7918C38.3554 43.7701 38.3461 43.7436 38.339 43.7117C38.3322 43.6798 38.3269 43.6417 38.3244 43.5972L38.3145 43.4335C38.3077 43.3372 38.2876 43.2725 38.2537 43.24C38.2197 43.2071 38.16 43.1922 38.0747 43.1951L37.7353 43.2064L37.7556 43.8121L37.4352 43.8228L37.4351 43.8228ZM39.7332 43.4727L39.9901 43.4776C40.1388 43.4805 40.2474 43.4436 40.3152 43.3669C40.3834 43.2905 40.419 43.1644 40.4223 42.9896C40.4257 42.8155 40.397 42.6867 40.3367 42.6038C40.2761 42.5206 40.18 42.4781 40.0481 42.4754L39.7522 42.4698L39.7332 43.4727V43.4727ZM39.4139 43.7482L39.4435 42.1898L40.0532 42.2013C40.2919 42.2059 40.469 42.274 40.5838 42.405C40.6987 42.5363 40.7538 42.7331 40.7489 42.9956C40.7462 43.1379 40.7221 43.2632 40.6768 43.3709C40.6313 43.4787 40.5665 43.565 40.4831 43.6295C40.4201 43.6777 40.3492 43.7119 40.2697 43.732C40.1903 43.7517 40.0796 43.7606 39.937 43.7577L39.4139 43.7482L39.4139 43.7482ZM41.3896 43.783L41.4735 42.2267L42.6027 42.2877L42.5881 42.5583L41.7743 42.5144L41.7565 42.8462L42.5006 42.8864L42.4862 43.1525L41.742 43.1123L41.7203 43.5127L42.5722 43.5588L42.5567 43.8463L41.3896 43.783L41.3896 43.783ZM43.2223 43.892L43.3874 42.3422L43.8586 42.3925L44.0408 43.605L44.4704 42.4578L44.9434 42.5084L44.7783 44.0583L44.4798 44.0264L44.6128 42.7765L44.1652 43.9929L43.8394 43.9579L43.6538 42.674L43.5208 43.9239L43.2223 43.892L43.2223 43.892ZM47.3484 44.4236L47.6746 42.8996L48.7805 43.1367L48.7238 43.4016L47.9271 43.2309L47.8575 43.5558L48.5862 43.7119L48.5305 43.9728L47.8016 43.8165L47.7178 44.2086L48.552 44.3874L48.4917 44.6691L47.3484 44.4236L47.3484 44.4236ZM51.47 44.5199L51.7692 44.6007C51.8499 44.6226 51.9131 44.6212 51.9595 44.5969C52.0055 44.5722 52.0388 44.5221 52.0592 44.4457C52.0784 44.3743 52.0749 44.3153 52.049 44.2686C52.0226 44.2222 51.9739 44.1894 51.9026 44.17L51.5871 44.085L51.4699 44.52L51.47 44.5199ZM51.3945 44.7921L51.2506 45.3274L50.9411 45.244L51.3464 43.739L52.0148 43.9195C52.1727 43.962 52.2813 44.0356 52.3408 44.1394C52.3997 44.2433 52.4083 44.3746 52.3653 44.5337C52.3237 44.6889 52.2515 44.7977 52.1494 44.8604C52.0472 44.923 51.9216 44.9344 51.7746 44.8947L51.3945 44.7921H51.3945ZM53.2667 45.0371L53.6269 45.1479C53.7046 45.1719 53.7671 45.1736 53.8138 45.1532C53.8602 45.1327 53.8935 45.0884 53.9146 45.0202C53.9344 44.9556 53.9316 44.9011 53.9063 44.8567C53.8808 44.8124 53.8325 44.7792 53.7622 44.7575L53.3881 44.6423L53.2667 45.0371L53.2667 45.0371ZM52.703 45.7811L53.1606 44.2913L53.8826 44.5134C54.0449 44.5633 54.1543 44.6351 54.2109 44.7286C54.268 44.8222 54.2743 44.9404 54.2302 45.0835C54.2026 45.1743 54.1603 45.2445 54.1032 45.2934C54.0464 45.3424 53.979 45.3669 53.9011 45.3671C53.9585 45.4102 53.9936 45.4592 54.007 45.5149C54.0197 45.5707 54.0124 45.649 53.9862 45.7501L53.9384 45.9277C53.9374 45.9292 53.9369 45.9312 53.9364 45.9339C53.9111 46.0231 53.9137 46.0833 53.9445 46.1132L53.9306 46.1589L53.5944 46.0556C53.5904 46.0312 53.5904 46.0032 53.5939 45.9707C53.5979 45.9383 53.6052 45.9005 53.6175 45.8578L53.6614 45.6996C53.6862 45.6065 53.6881 45.5387 53.6666 45.4969C53.6451 45.4548 53.5935 45.4211 53.5123 45.3962L53.1877 45.2964L53.0097 45.8758L52.7033 45.7811L52.703 45.7811ZM55.0745 45.7756C55.0156 45.9368 55.0058 46.0751 55.0447 46.1905C55.0838 46.3059 55.1674 46.387 55.2957 46.4339C55.4255 46.4814 55.5429 46.474 55.6477 46.4112C55.7526 46.3484 55.8344 46.2364 55.893 46.0753C55.9519 45.9145 55.9616 45.7762 55.922 45.6606C55.8825 45.5449 55.7976 45.4634 55.668 45.416C55.5396 45.3689 55.4231 45.3766 55.3193 45.4394C55.2152 45.5022 55.1334 45.6142 55.0745 45.7756L55.0745 45.7756ZM54.7679 45.6633C54.8541 45.4269 54.9873 45.2629 55.1665 45.1713C55.3461 45.0796 55.545 45.0736 55.7639 45.1535C55.982 45.2336 56.1306 45.3666 56.2088 45.5532C56.2874 45.7396 56.2839 45.9508 56.1977 46.1866C56.1114 46.4228 55.9782 46.5867 55.7979 46.6784C55.6178 46.7701 55.4185 46.7761 55.2002 46.6962C54.9813 46.6161 54.8333 46.4831 54.7554 46.2969C54.6775 46.1106 54.6814 45.8995 54.7679 45.6633H54.7679ZM57.6483 47.4938C57.5643 47.5432 57.4815 47.5702 57.3993 47.5753C57.3174 47.5799 57.2305 47.563 57.1387 47.5238C56.9387 47.4384 56.8062 47.2996 56.7412 47.1075C56.6763 46.9153 56.6922 46.7057 56.7888 46.4794C56.886 46.251 57.0259 46.0945 57.208 46.0106C57.39 45.9264 57.5842 45.9286 57.7906 46.0164C57.9701 46.093 58.0982 46.1983 58.1754 46.3327C58.2517 46.4671 58.2692 46.6144 58.2262 46.7738L57.9257 46.6456C57.9393 46.5634 57.9267 46.4909 57.8871 46.4281C57.8473 46.3653 57.7824 46.3143 57.6924 46.276C57.5727 46.2249 57.4598 46.2286 57.3539 46.2873C57.2476 46.3461 57.1621 46.453 57.0961 46.608C57.0296 46.764 57.0132 46.901 57.0471 47.0199C57.0807 47.1384 57.16 47.2243 57.2846 47.2774C57.3776 47.3173 57.4677 47.3229 57.5539 47.2947C57.6402 47.2661 57.7118 47.207 57.7671 47.1174L57.4425 46.9791L57.547 46.7338L58.1403 46.9869L57.8097 47.7627L57.6124 47.6783L57.6483 47.4938V47.4938ZM59.1289 47.4527L59.4673 47.6187C59.5406 47.6545 59.6017 47.666 59.6511 47.6531C59.6999 47.6401 59.7399 47.6016 59.7714 47.5374C59.8012 47.4767 59.8067 47.4226 59.789 47.3746C59.7707 47.3268 59.7281 47.2866 59.662 47.2541L59.3106 47.0818L59.1289 47.4527H59.1289ZM58.4559 48.0994L59.1405 46.6996L59.819 47.0321C59.9712 47.1067 60.0685 47.1949 60.1097 47.2961C60.1513 47.3974 60.1392 47.5152 60.0734 47.6494C60.0319 47.7348 59.9788 47.7974 59.915 47.8369C59.8514 47.8766 59.7809 47.8902 59.7039 47.878C59.7541 47.9295 59.7811 47.9835 59.7853 48.0406C59.7893 48.0976 59.77 48.1738 59.728 48.2696L59.653 48.4377C59.652 48.4389 59.6515 48.4408 59.6505 48.4433C59.611 48.5277 59.6041 48.5875 59.6304 48.6218L59.6093 48.6645L59.2935 48.51C59.2932 48.4853 59.2975 48.4576 59.306 48.4261C59.315 48.3947 59.3282 48.3585 59.3469 48.3181L59.4148 48.1689C59.4542 48.0807 59.4668 48.014 59.4518 47.9694C59.4374 47.9246 59.3917 47.8833 59.3151 47.8457L59.0104 47.6962L58.7439 48.2405L58.4562 48.0994L58.4559 48.0994ZM60.1959 48.9938L60.9529 47.6318L61.9413 48.1821L61.8097 48.419L61.0978 48.0225L60.9364 48.3128L61.5875 48.6755L61.458 48.9085L60.8069 48.5458L60.6123 48.8961L61.3575 49.3113L61.2178 49.5629L60.1959 48.9938V48.9938ZM61.953 49.477L62.2236 49.6403C62.19 49.7195 62.1873 49.7918 62.2154 49.8571C62.2435 49.9222 62.3043 49.9829 62.3979 50.0393C62.4779 50.0876 62.5463 50.1093 62.6037 50.1054C62.6614 50.1017 62.7066 50.0718 62.7403 50.0162C62.7888 49.9351 62.7132 49.7982 62.5125 49.6047C62.51 49.6022 62.5075 49.5999 62.5056 49.598C62.5003 49.593 62.4924 49.5853 62.4814 49.5745C62.3732 49.472 62.3028 49.3883 62.2705 49.3225C62.2414 49.2639 62.2302 49.2013 62.2361 49.1355C62.2421 49.0695 62.2659 49.002 62.3079 48.9323C62.3861 48.8025 62.4902 48.7296 62.6201 48.7134C62.7496 48.6975 62.8978 48.7397 63.0644 48.8402C63.2201 48.9342 63.3199 49.0447 63.3632 49.1711C63.4064 49.298 63.3902 49.4295 63.3142 49.5669L63.0508 49.4078C63.0848 49.3401 63.0899 49.2761 63.0654 49.2156C63.0409 49.1547 62.9875 49.0993 62.9051 49.0496C62.833 49.0062 62.7695 48.9866 62.7133 48.9914C62.6575 48.996 62.6143 49.0242 62.5828 49.0762C62.5403 49.147 62.5843 49.2452 62.7144 49.3719C62.7497 49.4063 62.7771 49.4332 62.7967 49.4525C62.8792 49.5357 62.9366 49.5971 62.969 49.6352C63.0014 49.6737 63.0275 49.7107 63.0476 49.746C63.0834 49.8088 63.1003 49.8735 63.0971 49.9396C63.0946 50.0058 63.0719 50.0741 63.03 50.1434C62.9463 50.282 62.8351 50.3614 62.6952 50.3817C62.5558 50.4016 62.4011 50.3605 62.2308 50.2577C62.0629 50.1564 61.9549 50.0381 61.9064 49.9026C61.8581 49.7668 61.8736 49.6251 61.9529 49.477L61.953 49.477ZM63.5941 50.5043L63.856 50.6817C63.8179 50.7588 63.8115 50.8309 63.8362 50.8978C63.8611 50.9643 63.9185 51.0278 64.0089 51.0893C64.0861 51.1417 64.1534 51.1671 64.2109 51.1662C64.2687 51.1655 64.3154 51.1382 64.352 51.0842C64.4051 51.0057 64.3361 50.8652 64.1464 50.6614C64.1439 50.6586 64.1414 50.6565 64.1398 50.654C64.1345 50.6491 64.1269 50.6408 64.1167 50.6295C64.0142 50.5217 63.9481 50.4344 63.9194 50.3669C63.8933 50.3065 63.8854 50.2437 63.8945 50.1783C63.9041 50.1129 63.9315 50.0465 63.9768 49.9792C64.0617 49.8537 64.1699 49.7862 64.3002 49.777C64.4302 49.768 64.5761 49.8179 64.7374 49.9269C64.8878 50.0292 64.9818 50.1443 65.0184 50.273C65.0547 50.4021 65.032 50.5328 64.9488 50.666L64.694 50.4933C64.7314 50.4274 64.7397 50.3637 64.7188 50.3019C64.6975 50.24 64.6473 50.1818 64.5673 50.128C64.4977 50.0806 64.435 50.058 64.3789 50.0594C64.3231 50.0614 64.2781 50.0873 64.2443 50.1372C64.1976 50.2056 64.2367 50.3062 64.3599 50.4397C64.3932 50.4757 64.4198 50.5041 64.4379 50.5242C64.5158 50.6119 64.5701 50.6757 64.6002 50.7159C64.6307 50.756 64.6549 50.7942 64.6728 50.8302C64.7055 50.8951 64.7188 50.9602 64.7127 51.0264C64.7063 51.0923 64.6806 51.1592 64.6351 51.2264C64.544 51.3606 64.4288 51.4342 64.2881 51.4467C64.1477 51.4592 63.9953 51.41 63.8303 51.2984C63.6684 51.1886 63.5662 51.0648 63.5253 50.9269C63.4841 50.7884 63.5068 50.648 63.594 50.5043L63.5941 50.5043ZM65.5727 51.5555C65.4692 51.6921 65.4197 51.8219 65.4229 51.9432C65.4264 52.065 65.4828 52.1671 65.5919 52.2496C65.7022 52.3331 65.8165 52.3602 65.935 52.3311C66.0536 52.3017 66.1644 52.2181 66.2678 52.0812C66.3709 51.945 66.4205 51.8155 66.4166 51.6931C66.4126 51.5711 66.3551 51.4686 66.2449 51.3851C66.136 51.3022 66.0222 51.276 65.9048 51.3054C65.787 51.3351 65.6763 51.4183 65.5727 51.5555L65.5727 51.5555ZM65.3122 51.3583C65.4634 51.1574 65.6389 51.0396 65.8372 51.0045C66.0356 50.9692 66.2277 51.0218 66.4134 51.1625C66.599 51.3028 66.7017 51.4735 66.7225 51.6746C66.7433 51.8762 66.6779 52.0769 66.5269 52.2771C66.3752 52.4777 66.2 52.5955 66.0011 52.6306C65.8018 52.6654 65.6093 52.6126 65.4243 52.4726C65.2384 52.3318 65.1356 52.1614 65.1156 51.9607C65.0955 51.76 65.1609 51.5589 65.3122 51.3583L65.3122 51.3583Z" fill="#009C37"/>
</g>
<defs>
<clipPath id="clip0_5_169">
<rect width="100" height="100" rx="50" fill="white"/>
</clipPath>
</defs>
</svg>
