<svg width="100" height="100" viewBox="0 0 100 100" fill="none" xmlns="http://www.w3.org/2000/svg">
<g clip-path="url(#clip0_5_298)">
<path d="M0 0H25L26.0312 2.0625H73.9688L75 0H100V100H75L73.9688 97.9375H26.0312L25 100H0V0Z" fill="#D52B1E"/>
<rect x="22" width="55" height="23" fill="white"/>
<rect x="22" y="78" width="55" height="22" fill="white"/>
<path d="M22 23H77V78H22V23ZM50.5312 73.7604L50.0156 63.8719C50.0081 63.7093 50.0372 63.547 50.1007 63.3971C50.1642 63.2472 50.2605 63.1135 50.3826 63.0057C50.5046 62.898 50.6493 62.819 50.8059 62.7746C50.9625 62.7301 51.1271 62.7214 51.2875 62.749L61.1302 64.4792L59.801 60.8125C59.7471 60.6666 59.7402 60.5075 59.7813 60.3575C59.8224 60.2075 59.9095 60.0741 60.0302 59.976L70.8125 51.2448L68.3833 50.1104C68.2193 50.0329 68.0892 49.8981 68.0174 49.7315C67.9457 49.5648 67.9373 49.3777 67.9938 49.2052L70.125 42.651L63.9146 43.9688C63.7463 44.0038 63.5711 43.9796 63.4187 43.9003C63.2662 43.8209 63.1459 43.6913 63.0781 43.5333L61.875 40.7031L57.0281 45.9052C56.9173 46.0221 56.7716 46.0999 56.6128 46.127C56.454 46.1541 56.2907 46.1289 56.1474 46.0553C56.0041 45.9817 55.8885 45.8637 55.818 45.7189C55.7475 45.574 55.7258 45.4103 55.7563 45.2521L58.0938 33.1979L54.3469 35.3635C54.2589 35.4151 54.1613 35.448 54.0601 35.4603C53.9588 35.4726 53.8562 35.464 53.7584 35.435C53.6607 35.406 53.5699 35.3572 53.4918 35.2917C53.4136 35.2262 53.3498 35.1454 53.3042 35.0542L49.5 27.5833L45.6958 35.0542C45.6502 35.1454 45.5864 35.2262 45.5082 35.2917C45.4301 35.3572 45.3393 35.406 45.2416 35.435C45.1438 35.464 45.0412 35.4726 44.9399 35.4603C44.8387 35.448 44.7411 35.4151 44.6531 35.3635L40.9062 33.1979L43.2437 45.2521C43.2742 45.4103 43.2525 45.574 43.182 45.7189C43.1115 45.8637 42.9959 45.9817 42.8526 46.0553C42.7093 46.1289 42.546 46.1541 42.3872 46.127C42.2284 46.0999 42.0827 46.0221 41.9719 45.9052L37.125 40.7031L35.9219 43.5333C35.8541 43.6913 35.7338 43.8209 35.5813 43.9003C35.4289 43.9796 35.2537 44.0038 35.0854 43.9688L28.875 42.651L31.0063 49.2052C31.0627 49.3777 31.0543 49.5648 30.9826 49.7315C30.9108 49.8981 30.7807 50.0329 30.6167 50.1104L28.1875 51.2448L38.9698 59.976C39.0906 60.0741 39.1776 60.2075 39.2187 60.3575C39.2598 60.5075 39.2529 60.6666 39.199 60.8125L37.8698 64.4792L47.7125 62.749C47.8729 62.7214 48.0375 62.7301 48.1941 62.7746C48.3507 62.819 48.4954 62.898 48.6174 63.0057C48.7395 63.1135 48.8358 63.2472 48.8993 63.3971C48.9628 63.547 48.9919 63.7093 48.9844 63.8719L48.4688 73.7604H50.5312Z" fill="white"/>
</g>
<defs>
<clipPath id="clip0_5_298">
<rect width="100" height="100" rx="50" fill="white"/>
</clipPath>
</defs>
</svg>
