<svg width="100" height="100" viewBox="0 0 100 100" fill="none" xmlns="http://www.w3.org/2000/svg">
<g clip-path="url(#clip0_5_470)">
<path d="M0 0H100V100H0V0Z" fill="#006D31"/>
<path d="M71.7549 67.8964C70.4197 67.8964 70.09 68.0942 69.1999 68.0283C68.3097 67.9624 66.4305 67.7975 66.4305 67.7975C66.4305 67.7975 66.4305 67.1052 66.2327 66.7426C66.0349 66.3799 65.5404 66.0502 65.0953 66.2151C64.6338 66.3799 64.6008 66.6437 64.6008 66.9074C64.6008 67.3689 65.1777 67.5997 65.2107 67.7975C65.2107 67.7975 50.9025 67.1382 43.5671 67.1382C36.2482 67.1382 30.0172 68.0118 26.9512 67.3525C26.9512 67.3525 27.0666 69.3141 32.3085 69.4295C37.5505 69.5448 46.3035 69.3141 50.3421 69.3141C54.3807 69.3141 64.3371 69.6437 65.2107 69.7591C65.2107 69.7591 65.2602 70.1383 65.1283 70.2701C64.9964 70.402 64.9635 70.5998 64.9635 70.8306C64.9635 71.0614 65.0459 71.4075 65.2107 71.6713C65.3756 71.935 65.4415 72.0339 65.7382 72.0339C66.1008 72.0339 66.4635 71.8032 66.3316 71.4405C66.3316 71.4405 67.4031 71.2757 67.7328 71.3746C68.0625 71.4735 68.557 71.7372 69.1339 71.7372C69.7273 71.7372 70.7658 71.5724 71.0955 71.3746C71.0955 71.3746 71.1615 71.935 72.0681 71.935C72.9747 71.935 73.4363 71.3086 73.4363 70.435C73.4527 69.5613 73.0901 67.8964 71.7549 67.8964ZM70.7988 70.8636C70.634 70.9625 69.3977 71.0119 69.3977 70.7647C69.3812 70.5174 69.101 70.3031 68.9196 70.3031C68.3592 70.3031 68.557 70.5998 68.1943 70.5998C67.8317 70.5998 66.0349 70.5669 66.0349 70.5669C66.0349 70.5669 65.903 70.1053 66.2657 70.0064C66.2657 70.0064 67.6504 69.8745 68.7878 69.8745C70.1724 69.8745 71.079 70.1383 71.079 70.1383C71.079 70.1383 70.9636 70.7647 70.7988 70.8636ZM20.7202 31.5491C20.7202 31.5491 20.8191 30.1974 20.407 29.8677C20.0279 29.571 19.9125 29.1589 20.0279 28.9776C20.3081 28.4831 20.6873 28.4666 20.951 28.6149C21.2972 28.8127 21.495 29.3732 21.4785 29.8183C21.4455 30.2798 21.1818 31.0216 20.7202 31.5491ZM18.8411 42.4451C18.8411 42.4451 20.7038 39.923 21.9071 39.4944C23.1104 39.0493 23.9346 39.3296 23.9841 39.8735C24.0335 40.4175 23.605 40.6977 22.8302 40.8626C21.973 41.0439 20.1103 41.9505 19.4675 42.4451C19.0883 42.7582 18.6762 42.7253 18.8411 42.4451ZM19.1707 44.8023C19.1707 44.8023 18.1158 46.7309 18.0169 48.1485C17.9344 49.4673 18.1322 50.3409 19.1048 50.3409C20.0938 50.3409 20.5224 49.0881 20.5224 48.4782C20.5224 47.8683 20.407 47.9342 20.1433 47.9342C19.8631 47.9342 19.4675 48.676 19.2037 48.5442C18.6927 48.2804 18.7586 47.5716 18.9235 47.11C19.1543 46.5331 19.1048 45.7583 19.1707 44.8023Z" fill="white"/>
<path d="M18.6762 31.8128C18.6762 31.8128 18.3301 34.1041 18.4454 35.4558C18.5608 36.8075 19.385 37.813 20.1598 37.813C20.918 37.813 21.5774 36.7581 21.5774 35.6866C21.5774 34.6316 21.6928 33.6261 21.9895 33.5107C22.2862 33.3953 22.3027 36.857 22.4346 37.335C22.6983 38.4065 23.8357 37.7801 24.2973 38.9834C24.4786 39.4779 24.594 43.2857 24.6434 43.8132C24.7094 44.3407 24.7094 44.3407 25.1215 43.7473C25.5336 43.1539 25.8797 41.6209 25.9457 40.6813C26.0116 39.7417 25.7149 38.324 25.5336 37.8625C25.3523 37.3844 25.649 36.7416 26.0611 36.8075C26.4732 36.8734 26.9512 37.4174 27.6765 37.5163C28.3688 37.5987 29.8854 37.335 30.1821 36.3954C30.4788 35.4558 29.2425 32.9173 29.2919 32.5052C29.3579 32.0931 29.5887 32.5052 29.8194 32.2744C30.0502 32.0436 29.2919 30.6919 28.8139 30.5601C28.3524 30.4447 27.5117 30.8568 27.693 31.681C27.8743 32.5052 28.9293 34.0382 28.9952 34.9118C29.0612 35.802 27.8743 35.802 27.5282 35.2086C27.1655 34.6151 26.7534 33.9063 26.7534 33.0327C26.7534 32.1425 26.9182 31.2689 26.3248 30.8568C25.7314 30.4447 25.1874 30.9062 25.3523 32.1425C25.5336 33.3788 26.3248 35.3239 25.5171 35.1426C25.2534 35.0932 24.9896 33.4942 24.8083 31.9612C24.627 30.4282 24.9731 29.1424 23.9841 28.9611C23.2258 28.8292 23.0775 29.3402 23.3742 31.2194C23.6709 33.0986 23.9841 34.6646 23.7039 35.3734C23.4071 36.0822 23.2258 34.0712 23.1764 32.7854C23.1104 31.4832 23.061 31.2853 22.2862 31.4502C21.1323 31.6974 20.6378 33.0986 20.5719 34.6316C20.5059 36.1646 19.5828 37.1372 19.4015 35.0272C19.2037 32.9173 19.2037 32.8019 18.6762 31.8128Z" fill="white"/>
<path d="M26.2754 28.8457C26.2094 28.7633 25.7644 28.9446 25.7479 29.4227C25.7149 29.9337 25.9127 30.6095 26.605 30.6095C27.2974 30.6095 28.1216 30.5106 28.1216 29.8513C28.1216 29.1919 27.8084 28.7633 27.7095 28.7798C27.6106 28.8128 27.8413 29.2578 27.66 29.4721C27.4787 29.6864 27.1985 29.4392 27.1325 29.1424C27.0666 28.8457 27.0996 28.7633 27.0336 28.7633C26.9842 28.7633 26.9347 28.9281 26.9018 29.1095C26.8688 29.2908 26.5391 29.604 26.3248 29.4886C26.094 29.3732 26.3248 28.8952 26.2754 28.8457ZM46.7321 37.4669C46.6661 37.3845 46.2376 37.5658 46.2046 38.0438C46.1716 38.5548 46.3694 39.2307 47.0618 39.2307C47.7541 39.2307 48.5783 39.1318 48.5783 38.4724C48.5783 37.8131 48.2651 37.3845 48.1662 37.401C48.0673 37.4339 48.2981 37.879 48.1167 38.0933C47.9354 38.3076 47.6552 38.0603 47.5893 37.7636C47.5233 37.4669 47.5563 37.3845 47.4904 37.3845C47.4409 37.3845 47.3914 37.5493 47.3585 37.7306C47.3255 37.912 46.9958 38.2252 46.7815 38.1098C46.5508 37.9944 46.7815 37.5328 46.7321 37.4669ZM58.4852 33.8569C58.4193 33.7745 57.9742 33.9558 57.9577 34.4338C57.9248 34.9448 58.1226 35.6207 58.8149 35.6207C59.5072 35.6207 60.3314 35.5218 60.3314 34.8624C60.3314 34.203 60.0182 33.7745 59.9193 33.7909C59.8204 33.8239 60.0512 34.269 59.8699 34.4833C59.6885 34.6976 59.4083 34.4503 59.3424 34.1536C59.2765 33.8569 59.3094 33.7745 59.2435 33.7745C59.194 33.7745 59.1446 33.9393 59.1116 34.1206C59.0786 34.3019 58.749 34.6151 58.5347 34.4998C58.3204 34.3844 58.5512 33.9228 58.4852 33.8569ZM37.9296 31.0381C37.9296 31.0381 38.0944 30.6095 38.0944 29.8677C38.0944 29.126 37.7483 28.7963 37.1713 28.7963C36.5614 28.7963 36.1988 29.2578 36.0834 29.8183C36.001 30.1645 36.0834 30.7744 36.6438 31.0546C36.6438 31.0546 36.6768 31.4172 36.0504 31.9447C35.4405 32.4722 33.7426 34.0382 33.38 34.0877C33.0173 34.1536 33.0833 34.1536 33.0998 34.2525C33.1657 34.6811 36.0669 34.4998 37.8142 31.4667C37.8142 31.4667 38.0944 31.5491 38.1933 31.3513C38.2922 31.1535 37.9296 31.0381 37.9296 31.0381ZM37.1713 30.593C37.0065 30.593 36.8746 30.3952 36.8746 30.148C36.8746 29.9007 37.0065 29.7029 37.1713 29.7029C37.3362 29.7029 37.468 29.9007 37.468 30.148C37.4516 30.3952 37.3197 30.593 37.1713 30.593ZM36.8087 34.3679C36.8416 34.0877 36.7922 34.0052 36.3966 34.1866C36.1493 34.302 35.9515 34.3844 35.7867 34.4833C35.6218 34.5822 35.6548 34.5822 35.6878 34.7635C35.7207 34.9283 35.8196 36.1646 36.4131 36.346C37.0065 36.5273 37.5669 36.1317 37.6659 35.769C37.7648 35.4064 37.8966 35.1426 37.8142 35.0767C37.7318 35.0108 37.0559 35.9668 36.7592 35.6207C36.4625 35.258 36.7263 34.9119 36.8087 34.3679Z" fill="white"/>
<path d="M37.9626 37.5658C37.8637 37.5328 37.3362 37.9779 37.0724 38.324C36.8252 38.6537 37.0395 39.0493 36.6933 39.1318C36.4131 39.1977 36.1163 38.5548 35.9845 38.4229C35.8526 38.2911 35.7702 38.2251 35.5559 38.2746C35.3416 38.324 35.0943 38.6043 34.7811 39.2142C34.4844 39.8406 34.0394 39.8571 33.7756 39.4614C33.347 38.8186 33.6602 38.3405 33.2316 38.39C32.8031 38.4394 32.7041 39.1482 32.3745 38.6867C32.0448 38.2086 31.8305 35.0602 31.5338 32.7854C31.5008 32.5876 31.4843 32.4557 31.5503 32.4227C31.814 32.2909 32.358 32.6865 32.4734 32.5216C32.5723 32.3568 32.5393 32.0601 32.2426 31.4007C31.9459 30.7414 31.336 28.9941 30.8909 28.8622C30.4623 28.7138 29.9348 30.2139 30.0172 30.8073C30.0997 31.4007 31.1217 36.7581 31.1052 38.1427C31.0722 39.5274 31.0063 39.7252 30.6931 39.7252C30.3799 39.7252 30.2645 39.1977 29.803 38.8845C29.3579 38.5713 29.0447 38.39 28.5831 38.39C27.7919 38.39 26.8523 39.2307 26.6215 40.0713C26.3908 40.8956 26.5391 42.3956 27.4787 42.5769C28.3194 42.7418 29.0612 42.3626 29.3744 42.1319C29.5227 42.033 29.6051 41.9505 29.6381 41.9835C29.6711 42.0165 29.7205 42.544 29.2919 43.2198C28.8634 43.8956 27.149 45.643 25.5665 45.643C23.9841 45.643 23.7368 44.044 23.7368 43.2033C23.7368 42.3626 23.8192 42.4286 23.8192 42.1978C23.8192 41.967 23.5885 41.6044 23.3907 41.6373C23.2093 41.6703 22.8467 42.1648 22.8467 43.6649C22.8467 45.1649 23.6214 47.3573 25.583 47.3573C27.5446 47.3573 29.6711 46.1045 30.7096 42.4286C30.9074 41.7198 30.7755 41.5219 30.9074 41.4395C31.0063 41.3736 31.27 42.0494 31.3195 42.478C31.3689 43.1209 31.1711 48.3958 25.4512 48.3958C25.4512 48.3958 24.2973 48.3793 23.8687 48.0991C23.4401 47.8189 22.9456 47.0111 22.6489 45.6594C22.3522 44.3078 22.4511 43.7803 22.3357 43.8462C22.2203 43.8957 21.528 44.7693 21.528 46.4507C21.528 48.1321 21.6763 50.3079 25.1874 50.3079C28.1381 50.3079 30.6931 48.6431 31.6986 46.6979C32.7041 44.7528 32.5063 41.8681 32.5063 41.5384C32.5063 41.2087 32.8195 41.2417 32.8525 41.4395C32.8855 41.6373 33.2646 41.6868 33.4624 41.7033C33.6602 41.7198 34.1383 41.6703 34.402 41.5055C34.6657 41.3406 35.1108 40.8296 35.3581 40.8296C35.6053 40.8296 35.6548 41.2417 36.3801 41.2417C37.1219 41.2417 37.6988 40.9615 37.979 38.835C38.0944 37.9119 38.0779 37.5987 37.9626 37.5658ZM28.3194 40.8956C28.0062 40.9285 27.726 40.7472 27.693 40.4999C27.66 40.2527 27.9073 40.0054 28.2205 39.9724C28.5337 39.9395 28.8139 40.1208 28.8469 40.3681C28.8634 40.6153 28.6326 40.8461 28.3194 40.8956Z" fill="white"/>
<path d="M35.1603 43.5824C35.1603 43.5824 34.6163 43.5 34.4185 43.0055C34.2207 42.4945 34.8141 42.1813 35.0779 42.1483C35.3581 42.1154 36.0174 42.544 35.9021 43.4341C35.7867 44.3242 35.5064 45.1155 35.3581 45.066C35.2097 45.033 35.2427 43.9781 35.2757 43.6978C35.3251 43.4341 35.1603 43.5824 35.1603 43.5824ZM41.0781 28.005C41.3253 27.9556 41.4077 28.2852 41.5231 28.4171C41.6385 28.549 41.6055 28.5984 41.4902 28.6809C41.3748 28.7633 40.8802 29.2743 40.8308 29.5051C40.7649 29.7523 41.144 29.8677 41.3253 29.7194C41.4572 29.604 41.655 29.8512 41.6385 30.0161C41.6055 30.3128 41.3583 30.6589 40.7978 30.6589C40.2374 30.6589 39.9736 30.3457 39.9901 29.9666C40.0066 29.7358 40.2539 28.8622 40.4846 28.549C40.7319 28.2358 40.9956 28.0215 41.0781 28.005ZM44.8529 28.3347C45.3474 28.2028 45.7266 28.8951 45.6277 29.2248C45.5287 29.5545 45.4628 29.9501 45.3309 30.1809C45.1991 30.4117 45.0837 30.6754 45.1002 30.8073C45.1331 30.9392 44.9848 31.0216 44.9353 31.0216C44.8859 31.0216 44.4738 31.1205 44.4078 30.8732C44.3419 30.6425 44.3749 30.2963 44.4903 30.082C44.6056 29.8677 44.6551 29.3897 44.5562 29.1589C44.4573 28.9281 44.4573 28.4501 44.8529 28.3347Z" fill="white"/>
<path d="M38.4736 32.5052C38.4736 34.0547 39.4461 36.4119 40.7484 36.313C41.8198 36.2471 41.9682 34.7635 42.2154 34.0052C42.4627 33.247 42.4627 32.9173 42.6111 32.8843C42.7594 32.8514 42.8254 35.3734 43.188 35.8679C43.5507 36.3789 43.9792 36.8735 44.6221 36.8735C45.265 36.8735 46.0562 36.7251 46.7156 35.9009C47.3585 35.0767 47.5068 34.9613 48.0178 35.7196C48.5288 36.4779 48.9574 36.6097 49.353 36.6097C49.7487 36.6097 50.985 36.4943 51.3311 35.1756C51.5125 34.4998 51.8421 34.747 51.941 35.0602C52.0399 35.3899 51.941 35.8844 52.1553 35.8844C52.3696 35.8844 52.9795 35.3734 53.1938 34.9778C53.4081 34.5822 53.5894 34.1206 53.4411 33.8239C53.2927 33.5437 53.0125 33.8239 52.7158 34.0052C52.4191 34.1866 52.6004 34.2855 52.3861 34.2855C52.1718 34.2855 51.5949 34.4998 51.4795 33.9558C51.3641 33.4118 50.9355 32.3074 50.6553 31.7964C50.3586 31.3019 50.3586 30.6425 50.6883 30.6755C51.0179 30.7084 51.4795 31.0711 51.6608 30.9227C51.8421 30.7744 51.1168 30.1315 51.0509 29.5545C50.985 28.9776 50.441 28.2193 49.7981 28.4666C49.1552 28.7139 48.5453 29.6205 49.1552 30.9887C49.7651 32.3568 50.0454 33.0162 50.0948 33.2964C50.2102 33.9888 49.7322 34.9448 49.0893 34.813C48.4464 34.6646 48.0838 33.8734 48.0178 32.8678C47.9519 31.8623 47.5893 29.3403 47.4079 28.7633C47.2266 28.1864 47.1607 28.1204 46.9793 28.2193C46.798 28.3347 46.0068 28.7303 46.1222 29.5545C46.2376 30.3788 46.6661 30.8898 46.6661 30.8898C46.6661 30.8898 47.0618 33.1975 46.8145 33.5107C46.5672 33.8404 45.9903 34.8459 45.4463 34.8789C44.721 34.9119 43.8968 34.2031 43.8968 33.4778C43.8968 32.7525 44.2265 30.2469 43.5342 29.7359C42.8583 29.2249 42.133 30.5601 41.3748 32.2909C40.6165 34.0217 41.1275 34.6316 40.4681 34.4503C39.8253 34.269 39.7099 32.9667 39.5285 31.8623C39.3472 30.7414 39.2318 30.3128 39.0175 30.4612C38.8032 30.6755 38.4736 31.5656 38.4736 32.5052ZM40.7154 39.8076C40.8802 39.2801 41.1934 39.6428 41.2923 39.0658C41.3912 38.4889 40.6 37.3845 39.9736 37.335C39.3472 37.2856 38.3417 38.1757 38.9681 39.6428C39.5945 41.1099 40.2374 41.3736 40.122 41.8517C40.0231 42.3297 39.8088 43.1209 38.7043 44.1594C37.5999 45.2144 33.924 47.4727 32.8195 48.1486C31.7151 48.8244 30.6601 49.6651 30.825 49.8794C30.9898 50.0937 32.8195 49.4508 33.8251 49.2035C34.8306 48.9398 38.8362 47.0936 40.5011 44.8847C42.2814 42.5275 41.3418 41.0934 41.078 40.6813C40.8308 40.2857 40.7154 39.8076 40.7154 39.8076Z" fill="white"/>
<path d="M54.6939 42.4944C53.3752 42.2801 51.0179 42.7582 50.1773 42.6593C49.3366 42.5604 49.0728 42.2472 49.9135 41.9669C50.7542 41.7032 51.018 41.9175 51.4465 41.868C52.9136 41.6537 53.5565 40.6647 53.8038 39.3954C54.0675 38.1426 52.9136 36.9228 52.0235 36.8239C51.1333 36.725 49.9135 37.3514 49.8146 38.1426C49.7157 38.9339 50.1773 39.7251 50.0784 39.9229C49.9795 40.1372 49.0234 40.0218 47.2926 40.813C45.5617 41.6043 45.2485 42.2307 44.9353 42.5933C44.6221 42.956 44.8364 42.5439 44.7705 41.9669C44.721 41.39 43.5012 37.9778 42.9902 37.1865C42.4627 36.3953 42.2484 36.3953 42.1001 36.9228C41.9352 37.4503 41.8858 38.6536 42.1495 39.6097C42.4133 40.5493 43.254 41.9834 43.2045 43.1373C43.1551 44.2912 42.71 46.7473 38.8362 48.1814C37.8307 48.5441 36.8417 48.7584 37.1549 46.5495C37.4681 44.3406 37.6329 43.6648 37.4681 43.401C37.3362 43.1703 35.3086 46.1868 35.8856 48.2968C36.6274 50.9837 39.8747 51.0332 41.7704 48.7748C43.6661 46.5165 43.9298 46.2033 44.1935 46.6154C44.4573 47.044 45.5617 49.1375 48.7102 49.6155C50.5069 49.8793 50.6058 49.5166 50.6058 48.9232C50.6058 48.3463 50.1773 47.9836 49.7652 47.8682C49.3531 47.7693 48.5124 47.2418 48.5124 46.8627C48.5124 46.5 48.4135 45.9231 50.408 45.5934C52.4026 45.2802 53.7708 44.9176 54.2488 44.8516C54.7269 44.8022 55.3038 44.3736 55.0895 44.1593C54.8752 43.945 54.9906 43.5824 55.3533 43.2692C55.6994 42.956 56.0126 42.6922 54.6939 42.4944ZM51.2322 38.7525C51.3476 38.6701 51.5619 38.769 51.6938 38.9833C51.8257 39.1976 51.8421 39.4284 51.7103 39.5108C51.5949 39.5932 51.3806 39.4778 51.2487 39.28C51.1169 39.0657 51.1004 38.835 51.2322 38.7525ZM47.9189 45.0659C47.5068 45.2308 47.1277 45.9066 47.1772 46.2198C47.2925 46.8957 47.1277 47.0935 46.1881 46.6484C44.8694 46.022 45.0342 44.4395 44.9188 44.2252C44.8199 44.0109 45.0013 43.7967 45.2815 43.7472C45.6441 43.6978 46.6991 43.7967 47.3255 43.912C47.9519 44.011 48.7926 44.3241 48.7926 44.5879C48.8091 44.8516 48.2981 44.9176 47.9189 45.0659Z" fill="white"/>
<path d="M51.8586 47.7034C52.1389 47.4727 52.4191 47.2089 52.8971 47.0276C53.3752 46.8628 53.2598 47.1595 53.1938 47.3738C53.1279 47.5881 53.0949 48.4617 53.3752 48.5276C53.6554 48.5936 54.595 48.3793 54.7269 48.1815C54.8587 47.9837 54.8587 47.8848 54.9576 47.9013C55.0565 47.9177 55.4522 48.198 55.7983 48.3793C56.161 48.5441 55.9302 48.6266 55.2543 48.7584C54.5785 48.8903 53.6884 49.3189 53.1774 49.3189C52.6664 49.3189 52.6663 48.8903 52.6169 48.6101C52.5839 48.3298 52.4685 48.198 52.2542 48.2474C52.0235 48.2804 51.8257 48.2969 51.7597 48.1155C51.7103 47.9177 51.8586 47.7034 51.8586 47.7034ZM73.0571 48.9562C73.222 48.643 73.3868 48.2969 73.7165 48.0331C74.0462 47.7694 74.0132 48.132 73.9967 48.3793C73.9802 48.6266 74.1121 49.6156 74.3264 49.6486C74.5407 49.6815 75.2001 49.3024 75.266 49.0551C75.3319 48.8079 75.3154 48.709 75.3979 48.709C75.4803 48.709 75.81 48.9727 76.1067 49.1211C76.4034 49.2529 76.2386 49.3848 75.7605 49.6321C75.2825 49.8793 74.6891 50.5057 74.3099 50.5882C73.9308 50.6541 73.8484 50.1761 73.7824 49.8629C73.7 49.5497 73.6011 49.4178 73.4527 49.5002C73.2879 49.5826 73.1395 49.6321 73.0571 49.4343C72.9912 49.2365 73.0571 48.9562 73.0571 48.9562ZM55.7818 29.8677C55.5181 29.4556 55.7324 28.9281 55.3697 28.9281C55.0071 28.9281 54.8587 29.3402 54.8587 29.6039C54.8587 29.8677 54.7763 31.0051 55.2214 31.615C55.4851 31.9777 55.5346 32.0766 55.5346 32.3898C55.5346 32.703 56.4577 38.0273 56.4577 43.6154C56.4577 46.2034 56.1445 46.4012 56.1939 46.7144C56.2434 47.0276 56.2928 48.0002 56.4577 48.1155C56.606 48.2145 57.4962 47.2913 57.5951 45.7418C57.694 44.1923 57.5951 38.3405 56.8698 33.2799C56.7709 32.5546 57.2324 33.3293 57.3313 33.0656C57.4302 32.8019 57.2654 31.0381 56.7544 30.7413C56.2764 30.4446 56.095 30.3292 55.7818 29.8677ZM64.2711 29.8677C64.0074 29.4556 64.2217 28.9281 63.859 28.9281C63.4964 28.9281 63.348 29.3402 63.348 29.6039C63.348 29.8677 63.2656 31.0051 63.7107 31.615C63.9744 31.9777 64.0239 32.0766 64.0239 32.3898C64.0239 32.703 65.2767 37.3679 65.458 42.3132C65.5569 45.0495 65.392 47.176 65.5569 47.2749C65.7052 47.3738 66.2822 46.6485 66.3811 45.099C66.48 43.5495 66.1009 38.3405 65.3756 33.2799C65.2767 32.5546 65.7382 33.3293 65.8371 33.0656C65.936 32.8019 65.7712 31.0381 65.2602 30.7413C64.7656 30.4446 64.5843 30.3292 64.2711 29.8677Z" fill="white"/>
<path d="M52.0729 29.0435C51.6443 28.7797 51.6114 28.2028 51.2652 28.3676C50.9355 28.5325 50.9685 28.9775 51.0839 29.2248C51.1993 29.4721 51.6443 30.56 52.3367 30.9391C52.7488 31.1534 52.8312 31.2359 52.9795 31.5161C53.1114 31.7963 56.3917 36.3459 58.9138 41.5384C60.0842 43.9451 59.8864 44.2747 60.0677 44.5385C60.249 44.8022 60.7435 45.6924 60.9413 45.7253C61.1391 45.7583 61.5348 44.489 60.9249 43.0055C60.3149 41.5219 57.5786 36.1151 54.6279 31.7304C54.1994 31.104 54.9906 31.615 54.9741 31.3348C54.9576 31.0545 54.0016 29.4721 53.3916 29.4226C52.7982 29.3732 52.5674 29.3402 52.0729 29.0435Z" fill="white"/>
<path d="M63.0843 46.0715C63.2986 45.1155 63.0183 40.3021 62.9524 39.3295C62.9029 38.357 62.7216 35.291 62.4744 33.2964C62.3919 32.5711 62.837 33.3623 62.9524 33.0986C63.0678 32.8348 62.9359 31.071 62.4249 30.7578C61.9304 30.4611 61.7655 30.3292 61.4523 29.8512C61.1886 29.4391 61.4194 28.9116 61.0567 28.9116C60.6941 28.9116 60.5292 29.3237 60.5292 29.571C60.5292 29.8347 60.4138 30.9721 60.8589 31.5985C61.1062 31.9612 61.1556 32.0766 61.1556 32.3733C61.1556 32.6865 62.0787 37.8954 61.9469 43.4835C61.8974 45.8243 61.6337 46.088 61.0402 46.7639C60.1336 47.8024 58.2874 49.3189 57.6775 49.4672C57.0676 49.6156 56.9027 49.698 57.0676 49.9782C57.2159 50.2255 58.0401 50.5387 58.6501 50.5387C59.26 50.5387 59.7875 50.5387 60.6446 49.9123C61.5677 49.2529 62.5733 48.4947 63.0843 46.0715ZM67.5185 35.0931C67.3207 35.4888 67.0404 36.247 67.2547 36.6262C67.469 36.9888 68.5735 37.3679 68.8867 37.8954C69.1999 38.4229 69.3647 38.3735 69.4141 38.0603C69.4636 37.7471 69.3152 36.5273 69.8427 35.8514C70.0735 35.5382 70.5351 35.5382 70.5845 35.0602C70.634 34.5821 70.2219 34.2689 69.8922 34.2195C69.579 34.17 69.1009 34.17 69.0515 34.4832C69.002 34.7964 68.7877 36.3294 68.5735 36.1646C68.3592 35.9998 68.0954 35.5382 67.9471 35.2745C67.7822 34.9778 67.6174 34.8789 67.5185 35.0931ZM68.9526 41.489C68.4581 41.8351 68.013 42.0494 67.9636 41.9835L67.6009 41.2582C67.5679 41.1758 67.9306 40.8296 68.4416 40.4834L70.3043 39.1812C70.7988 38.835 71.2439 38.6207 71.2933 38.6867L71.656 39.412C71.6889 39.4944 71.3263 39.8406 70.8153 40.1867L68.9526 41.489ZM71.0461 40.6483C70.7658 40.4999 70.4032 41.2582 70.4032 41.6703C70.4032 42.2967 70.9966 42.9066 71.145 43.0714C71.3593 43.3187 71.3922 43.8627 71.1615 44.077C70.9472 44.2748 70.7329 44.3242 70.9142 44.4726C71.0955 44.6044 71.8538 43.9286 71.8538 43.4341C71.8538 42.9396 71.5406 42.3461 71.4087 42.0824C71.2768 41.8186 71.4087 41.5879 71.4087 41.3241C71.4252 41.0274 71.3098 40.7801 71.0461 40.6483Z" fill="white"/>
<path d="M78.8595 43.6484C78.5628 42.956 77.7716 41.5549 76.6836 39.8405C76.5023 37.9943 76.2221 35.7855 75.8759 33.3623C75.777 32.637 76.2386 33.4118 76.3375 33.148C76.4364 32.8843 76.2715 31.1205 75.7605 30.8238C75.266 30.5271 75.0847 30.4117 74.7715 29.9501C74.5077 29.538 74.722 29.027 74.3594 29.027C73.9967 29.027 73.8484 29.4391 73.8484 29.7029C73.8484 29.9666 73.7659 31.104 74.211 31.7139C74.4748 32.0766 74.5242 32.1755 74.5242 32.4887C74.5242 32.6865 74.9858 34.8129 75.3154 37.7471C74.6726 36.7745 73.9802 35.7525 73.2549 34.7305C73.189 34.236 73.1231 33.7579 73.0571 33.2799C72.9582 32.5546 73.4198 33.3293 73.5187 33.0656C73.6176 32.8019 73.4527 31.0381 72.9582 30.7413C72.4637 30.4446 72.2824 30.3292 71.9692 29.8677C71.7054 29.4556 71.9197 28.9281 71.5571 28.9281C71.1944 28.9281 71.0461 29.3402 71.0461 29.6039C71.0461 29.8182 70.9966 30.6095 71.2109 31.2359C71.145 31.2194 71.0955 31.1864 71.0461 31.1864C70.4197 31.1699 70.1889 31.1535 69.6614 30.8897C69.1999 30.6589 69.1669 30.0655 68.8207 30.2468C68.4581 30.4281 68.5075 30.8897 68.6229 31.1205C68.7383 31.3513 69.1999 32.4227 69.9252 32.7689C70.3537 32.9667 70.4526 33.0326 70.601 33.3129C70.6669 33.4282 71.2439 34.0711 72.0681 35.0931C72.3318 37.2361 72.645 40.3845 72.645 43.6319V44.2088C72.5791 44.6374 72.4307 45.1319 72.1175 45.5111C71.6395 46.0715 71.1944 46.4836 70.5515 45.577C69.9087 44.6869 69.4142 43.8791 68.9196 44.044C68.4251 44.2088 67.9471 44.6869 67.5514 45.9561C67.1558 47.2254 66.1338 49.0716 65.6393 48.5771C65.1448 48.0826 64.4854 47.6375 64.4854 46.2528C64.4854 44.8847 64.7162 44.6869 64.6338 44.3572C64.5349 44.0275 63.7601 45.2968 63.7107 46.8628C63.6612 48.4287 64.3535 49.7145 65.7382 50.3903C67.1229 51.0497 67.6668 49.4178 67.8482 48.9068C68.013 48.3958 68.2108 46.8298 68.491 46.6814C68.8207 46.5166 69.3977 46.6814 69.4801 46.8298C69.579 46.9781 70.09 47.654 70.6175 47.8683C71.112 48.0661 72.0351 48.3298 72.6945 47.9837C73.4198 47.6045 73.7989 47.0441 73.9473 46.0056C74.0297 45.4286 74.0462 44.588 73.9967 44.0605C73.9967 42.3296 73.8154 39.6922 73.5187 36.8899C74.1616 37.7306 74.8539 38.7031 75.5297 39.7252C75.6286 40.945 75.6946 42.2307 75.6946 43.5495C75.6946 46.1375 75.6946 46.8792 75.9583 46.9122C76.1397 46.9287 76.8155 45.7418 76.9144 44.1923C76.9474 43.6978 76.9309 42.9231 76.8649 41.934C78.1177 44.1923 78.876 45.9891 79.0573 46.0056C79.2716 46.055 79.4859 45.099 78.8595 43.6484ZM76.8649 31.104C77.0133 30.9227 77.0957 30.8567 77.2935 31.1699C77.4913 31.4996 77.9034 32.3073 77.9034 33.5931C77.9034 34.8788 77.4584 34.9613 77.31 34.9777C77.1781 34.9942 77.376 34.7799 77.4913 34.3514C77.6067 33.9228 77.5573 33.5931 77.2771 33.0161C76.9803 32.4227 76.5682 32.159 76.4693 32.0601C76.3704 31.9612 76.3539 31.8787 76.4693 31.6974C76.5847 31.5161 76.8155 31.1699 76.8649 31.104Z" fill="white"/>
<path d="M80.1782 33.0326C80.0793 32.3402 80.5409 33.082 80.6398 32.8348C80.7387 32.5875 80.1453 31.7303 79.8321 31.2853C79.5683 30.8896 79.3211 30.0325 78.9584 30.0325C78.5958 30.0325 78.4474 30.4281 78.4474 30.6918C78.4474 30.9391 78.365 32.0435 78.8101 32.6534C79.0738 32.9996 79.1233 33.115 79.1233 33.4117C79.1233 33.7084 80.2112 39.2306 80.2112 44.6538C80.2112 46.8462 79.8486 46.9946 79.7991 47.1924C79.5354 47.6045 79.1233 48.066 78.4639 48.577C76.7331 49.8793 75.8594 50.1925 75.7605 50.4233C75.6616 50.654 75.777 50.687 76.0572 50.7529C76.3375 50.8354 78.3485 50.5386 79.4859 49.6485C80.8046 48.5935 81.0849 47.3078 81.1178 46.1044C81.1343 44.5714 80.9035 37.9448 80.1782 33.0326Z" fill="white"/>
</g>
<defs>
<clipPath id="clip0_5_470">
<rect width="100" height="100" rx="50" fill="white"/>
</clipPath>
</defs>
</svg>
