<svg width="100" height="100" viewBox="0 0 100 100" fill="none" xmlns="http://www.w3.org/2000/svg">
<g clip-path="url(#clip0_5_1377)">
<path fill-rule="evenodd" clip-rule="evenodd" d="M0.353195 0.38562H149.647V99.6144H0.353195V0.38562Z" fill="white"/>
<path fill-rule="evenodd" clip-rule="evenodd" d="M0.353195 0.38562H149.647V49.2503H0.353195V0.38562Z" fill="#CC2229"/>
<path fill-rule="evenodd" clip-rule="evenodd" d="M36.2991 41.437C34.8607 42.3207 33.7021 41.8999 31.9041 41.8999C24.5525 41.8999 18 34.957 18 27.2567C18 19.5143 24.0331 13.1605 31.3847 13.1605C33.2226 13.1605 35.3801 12.6135 36.7785 13.5392C30.0263 13.7075 24.1929 20.3138 24.1929 27.2567C24.1929 34.1575 29.5468 41.2687 36.2991 41.437ZM37.9772 36.0931L40.2146 37.9445L39.1758 35.1674L41.5731 33.5263L38.7363 33.5684L37.9372 30.5809L37.1381 33.4842L34.2614 33.5263L36.6986 35.0832L35.7797 37.9445L37.9772 36.0931ZM42.4121 22.3756L44.6895 24.227L43.6507 21.4499L46.008 19.8088L43.1712 19.8509L42.4121 16.8634L41.613 19.7668L38.7363 19.8088L41.1735 21.3657L40.2146 24.227L42.4121 22.3756ZM35.4595 27.8878L37.6969 29.7393L36.6581 26.9201L39.0554 25.3211H36.2186L35.4195 22.3756L34.6604 25.279H31.7437L34.2209 26.878L33.2614 29.7393L35.4595 27.8878ZM49.4041 27.8878L51.6416 29.7393L50.6027 26.9201L53 25.3211H50.1233L49.3642 22.3756L48.5651 25.279H45.6884L48.1256 26.878L47.1667 29.7393L49.4041 27.8878ZM47.0468 36.0931L49.3242 37.9445L48.2854 35.1674L50.6826 33.5263L47.8054 33.5684L47.0463 30.5809L46.2472 33.4842L43.3704 33.5263L45.8077 35.0832L44.8488 37.9445L47.0468 36.0931Z" fill="white" stroke="white" stroke-width="1.68186" stroke-miterlimit="2.613"/>
</g>
<defs>
<clipPath id="clip0_5_1377">
<rect width="100" height="100" rx="50" fill="white"/>
</clipPath>
</defs>
</svg>
