<svg width="100" height="100" viewBox="0 0 100 100" fill="none" xmlns="http://www.w3.org/2000/svg">
<g clip-path="url(#clip0_5_1383)">
<path d="M0 0.0583496H150V100.058H0V0.0583496Z" fill="white"/>
<path d="M0 0.0583496H150V7.75018H0V0.0583496ZM0 15.442H150V23.134H0V15.442ZM0 30.8259H150V38.5179H0V30.8259ZM0 46.2097H150V53.9015H0V46.2097ZM0 61.5934H150V69.2854H0V61.5934ZM0 76.9772H150V84.669H0V76.9772ZM0 92.3611H150V100.053H0V92.3611Z" fill="#DC1F2B"/>
<path d="M0 0H58V53H0V0Z" fill="white"/>
<path d="M-17 0V54H58V0H-17ZM-8.78149 50.6249L-10.5843 49.302L-12.3605 50.6249L-11.6979 48.6001L-13.5005 47.277H-11.2737L-11.0351 46.4939L-10.6109 45.1439L-10.1867 46.4939L-9.9215 47.277H-7.72113L-9.44428 48.6001L-8.78149 50.6249ZM-9.44428 37.8001L-9.17923 38.6641L-8.75505 39.933L-10.5048 38.6641L-12.228 39.933L-11.8304 38.6641L-11.6979 37.8001L-13.5005 36.477H-11.2737L-10.6109 34.3441L-9.9215 36.477H-7.72113L-9.44428 37.8001ZM-9.44428 27.216L-8.75488 29.3491L-10.5579 28.026L-12.334 29.3491L-11.6977 27.1891L-13.5005 25.866H-11.2737L-10.6109 23.7331L-9.9215 25.866H-7.72113L-9.44428 27.216ZM-7.95974 15.4711L-9.44428 16.5781L-8.75488 18.711L-10.5579 17.415L-12.334 18.711L-11.6977 16.551L-13.2088 15.444L-13.5005 15.228H-11.2737L-10.6109 13.095L-9.9215 15.228H-7.72113L-7.95974 15.4711ZM-9.44428 5.75097L-8.8081 7.74908V7.88405L-9.04671 7.72216L-10.6638 6.53402L-12.281 7.72198L-12.44 7.85694V7.72198L-11.6979 5.72405L-13.5005 4.40094H-11.2737L-10.6109 2.24094L-9.9215 4.40094H-7.72113L-9.44428 5.75097ZM-2.55152 45.225L-4.32771 43.9019L-6.13051 45.225L-5.44111 43.2L-7.21748 41.8771H-5.01711L-4.32771 39.7171L-3.66492 41.8771H-1.43794L-3.24074 43.2L-2.55152 45.225ZM-3.24074 32.4L-2.55134 34.5331L-4.32771 33.2371L-6.13051 34.5331L-5.44111 32.4L-7.21748 31.0771H-5.01711L-4.35414 29.052L-3.71796 31.0771H-1.49099L-3.24074 32.4ZM-3.24074 21.8159L-2.79013 23.2201L-2.55152 23.949L-3.5324 23.22L-4.32771 22.6261L-5.14945 23.22L-6.13051 23.949L-5.8919 23.22L-5.44111 21.8159L-7.21748 20.493H-5.01711L-4.32771 18.3601L-3.7444 20.4391H-1.51742L-3.24074 21.8159ZM-3.24074 11.178L-2.55134 13.338L-4.32771 12.0151L-6.13051 13.338L-5.44111 11.178L-7.21748 9.85506H-5.01711L-4.35414 7.776L-3.7444 9.80103H-1.51742L-3.24074 11.178ZM3.65219 50.679L1.876 49.356L0.099636 50.679L0.762426 48.5999L-1.09324 47.142H1.10713L1.37217 46.359L1.79635 45.0089L2.22053 46.359L2.48575 47.142H4.68612L2.9894 48.5999L3.65219 50.679ZM2.9894 37.7999L3.25445 38.6639L3.65219 39.933L1.92887 38.6641L0.205725 39.933L0.603471 38.6641L0.762426 37.8001L-1.09324 36.4501H1.10713L1.79653 34.317L2.48575 36.4501H4.68612L2.9894 37.7999ZM2.9894 27.216L3.65202 29.3491L1.87582 28.026L0.099636 29.3491L0.762426 27.216L-1.09324 25.866H1.10713L1.79653 23.7331L2.48575 25.866H4.68612L2.9894 27.216ZM4.47394 15.444L2.9894 16.551L3.65202 18.684L1.87582 17.388L0.099636 18.684L0.762426 16.551L-0.722108 15.444L-1.09342 15.228H1.10695L1.79635 13.095L2.48575 15.228H4.68612L4.47394 15.444ZM2.9894 5.72405L3.62558 7.72198V7.85694L3.46663 7.72198L1.84939 6.53402L0.232159 7.72198L0.0732039 7.85694V7.72198L0.709381 5.72405L-1.09342 4.40094H1.10695L1.79635 2.24094L2.48575 4.40094H4.68612L2.9894 5.72405ZM9.88234 45.1979L8.07954 43.875L6.30335 45.1979L6.99257 43.2L5.18977 41.8771H7.41675L8.07936 39.7171L8.76876 41.8771H10.9691L9.19294 43.2L9.88234 45.1979ZM9.19294 32.4L9.88234 34.5331L8.07954 33.2371L6.30335 34.5331L6.99257 32.4L5.18977 31.0771H7.41675L8.05293 29.052L8.68928 31.0771H10.8897L9.19294 32.4ZM9.19294 21.8159L9.64373 23.2201L9.88234 23.949L8.90128 23.22L8.07954 22.6261L7.28423 23.22L6.30335 23.949L6.54178 23.22L6.99257 21.8159L5.18977 20.493H7.41675L8.07936 18.3601L8.76876 20.493H10.9691L9.19294 21.8159ZM9.19294 11.178L9.88234 13.338L8.07954 12.0151L6.30335 13.338L6.99257 11.178L5.18977 9.85506H7.41675L8.07936 7.776L8.74233 9.85506H10.9427L9.19294 11.178ZM16.0859 50.679L14.3097 49.356L12.5069 50.679L13.1963 48.519L11.4199 47.196H13.6203L13.8855 46.413L14.3097 45.063L14.7339 46.413L14.9725 47.196H17.1993L15.3967 48.519L16.0859 50.679ZM15.3965 37.7999L15.6881 38.6639L16.0859 39.933L14.3627 38.6641L12.613 39.933L13.0371 38.6641L13.3022 37.8001L11.526 36.477H13.7264L14.4158 34.3441L15.0784 36.477H17.3055L15.3965 37.7999ZM15.3965 27.216L16.0859 29.3491L14.3097 28.026L12.5069 29.3491L13.1963 27.216L11.4199 25.8931H13.6203L14.3097 23.76L14.9723 25.8931H17.1995L15.3965 27.216ZM16.9078 15.4711L15.3967 16.5781L16.0859 18.711L14.3097 17.415L12.5069 18.711L13.1963 16.5781L11.7116 15.4711L11.4199 15.255H13.6203L14.3097 13.1221L14.9723 15.255H17.1995L16.9078 15.4711ZM15.3967 5.75097L16.0593 7.74908V7.88405L15.9003 7.74908L14.2831 6.56094L12.666 7.74908L12.4803 7.88405V7.74908L13.1166 5.75097L11.3404 4.42805H13.5408L14.2302 2.26805L14.8928 4.42805H17.12L15.3967 5.75097ZM22.2894 45.225L20.5132 43.9019L18.737 45.225L19.3996 43.092L17.6234 41.769H19.8238L20.5132 39.609L21.2026 41.769H23.403L21.6266 43.092L22.2894 45.225ZM21.6268 32.4L22.2894 34.5331L20.5132 33.2371L18.737 34.5331L19.3996 32.4L17.6234 31.0771H19.8238L20.4602 29.052L21.0965 31.0771H23.2969L21.6268 32.4ZM21.6268 21.8159L22.0774 23.2201L22.2894 23.949L21.3351 23.22L20.5132 22.6261L19.6915 23.22L18.737 23.949L18.949 23.22L19.3998 21.8159L17.6234 20.493H19.8238L20.5132 18.3601L21.2026 20.493H23.403L21.6268 21.8159ZM21.6268 11.178L22.2894 13.338L20.5132 12.0151L18.737 13.338L19.3996 11.178L17.6234 9.85506H19.8238L20.4868 7.776L21.1494 9.85506H23.3498L21.6268 11.178ZM28.5196 50.679L26.7168 49.356L24.9406 50.679L25.63 48.519L23.8272 47.196H26.0541L26.2926 46.413L26.7168 45.063L27.1675 46.413L27.4062 47.196H29.6065L27.8303 48.519L28.5196 50.679ZM27.8302 37.7999L28.0954 38.6639L28.5196 39.933L26.7698 38.6641L25.02 39.933L25.4178 38.6641L25.7094 37.8001L23.9066 36.477H26.1336L26.7962 34.3441L27.4856 36.477H29.686L27.8302 37.7999ZM27.8302 27.216L28.5196 29.3491L26.7168 28.026L24.9406 29.3491L25.63 27.216L23.8272 25.8931H26.0541L26.7168 23.76L27.4062 25.8931H29.6065L27.8302 27.216ZM29.3149 15.4711L27.8303 16.5781L28.5197 18.711L26.7168 17.415L24.9406 18.711L25.63 16.5781L24.1188 15.4711L23.8272 15.255H26.0541L26.7168 13.1221L27.4062 15.255H29.6065L29.3149 15.4711ZM27.8303 5.75097L28.4665 7.74908V7.88405L28.2809 7.74908L26.6639 6.56094L25.0467 7.74908L24.8877 7.88405V7.74908L25.5239 5.75097L23.7211 4.42805H25.9481L26.6107 2.26805L27.3001 4.42805H29.5004L27.8303 5.75097ZM34.7233 45.225L32.9469 43.9019L31.1441 45.225L31.8335 43.092L30.0573 41.769H32.2577L32.9471 39.609L33.6097 41.769H35.8367L34.0339 43.092L34.7233 45.225ZM34.0339 32.4L34.7233 34.5331L32.9469 33.2371L31.1441 34.5331L31.8335 32.4L30.0573 31.0771H32.2577L32.8939 29.052L33.5302 31.0771H35.7572L34.0339 32.4ZM34.0339 21.8159L34.4847 23.2201L34.7233 23.949L33.7422 23.22L32.9469 22.6261L32.1252 23.22L31.1441 23.949L31.3827 23.22L31.8335 21.8159L30.0573 20.493H32.2577L32.9471 18.3601L33.6097 20.493H35.8367L34.0339 21.8159ZM34.0339 11.178L34.7233 13.338L32.9469 12.0151L31.1441 13.338L31.8335 11.178L30.0573 9.85506H32.2577L32.9203 7.776L33.5833 9.85506H35.8102L34.0339 11.178ZM40.9268 50.679L39.1506 49.356L37.3742 50.679L38.037 48.519L36.2608 47.196H38.4612L38.7264 46.413L39.1506 45.063L39.5748 46.413L39.8398 47.196H42.0402L40.264 48.6001L40.9268 50.679ZM40.264 37.7999L40.5291 38.6639L40.9268 39.933L39.2035 38.6641L37.4803 39.933L37.8781 38.6641L38.1431 37.8001L36.3669 36.477H38.5673L39.2567 34.3441L39.9459 36.477H42.1463L40.264 37.7999ZM40.264 27.216L40.9266 29.3491L39.1506 28.026L37.3742 29.3491L38.037 27.216L36.2608 25.8931H38.4612L39.1506 23.76L39.8398 25.8931H42.0402L40.264 27.216ZM41.7487 15.4711L40.264 16.5781L40.9266 18.711L39.1506 17.415L37.3742 18.711L38.037 16.5781L36.5525 15.4711L36.2608 15.255H38.4612L39.1506 13.1221L39.8398 15.255H42.0402L41.7487 15.4711ZM40.264 5.75097L40.9004 7.74908V7.88405L40.7412 7.74908L39.124 6.56094L37.5068 7.74908L37.3478 7.88405V7.72216L37.984 5.72405L36.2078 4.40094H38.4082L39.0976 2.24094L39.787 4.40094H41.9873L40.264 5.75097ZM47.1569 45.225L45.3541 43.9019L43.578 45.225L44.2674 43.092L42.4644 41.769H44.6915L45.3541 39.609L46.0435 41.769H48.2439L46.4675 43.092L47.1569 45.225ZM46.4675 32.4L47.1569 34.5331L45.3541 33.2371L43.578 34.5331L44.2674 32.4L42.4644 31.0771H44.6915L45.3277 29.052L45.9903 31.0771H48.1907L46.4675 32.4ZM46.4675 21.8159L46.9183 23.2201L47.1569 23.949L46.1761 23.22L45.3541 22.6261L44.5588 23.22L43.578 23.949L43.8166 23.22L44.2672 21.8159L42.4644 20.493H44.6915L45.3541 18.3601L46.0435 20.493H48.2439L46.4675 21.8159ZM46.4675 11.178L47.1569 13.338L45.3541 12.0151L43.578 13.338L44.2674 11.178L42.4644 9.85506H44.6915L45.3541 7.776L46.0168 9.85506H48.2173L46.4675 11.178ZM53.3605 50.679L51.5843 49.356L49.7815 50.679L50.4709 48.519L48.6945 47.196H50.8949L51.1601 46.413L51.5843 45.063L52.0085 46.413L52.2471 47.196H54.58L52.7772 48.519L53.3605 50.679ZM52.6711 37.7999L52.9629 38.6639L53.3605 39.933L51.6373 38.6641L49.8876 39.933L50.3118 38.6641L50.5768 37.8001L48.8006 36.477H51.001L51.6904 34.3441L52.353 36.477H54.5802L52.6711 37.7999ZM52.6711 27.216L53.3605 29.3491L51.5843 28.026L49.7815 29.3491L50.4709 27.216L48.6945 25.8931H50.8949L51.5843 23.76L52.2469 25.8931H54.58L52.6711 27.216ZM54.1824 15.4711L52.6713 16.5781L53.3607 18.711L51.5843 17.415L49.7815 18.711L50.4709 16.5781L48.9862 15.4711L48.6945 15.255H50.8949L51.5843 13.1221L52.2469 15.255H54.58L54.1824 15.4711ZM52.6713 5.75097L53.3339 7.74908V7.88405L53.1749 7.74908L51.5577 6.56094L49.9406 7.74908L49.7549 7.88405V7.74908L50.3912 5.75097L48.615 4.42805H50.8154L51.5048 2.26805L52.1674 4.42805H54.58L52.6713 5.75097Z" fill="#1B304F"/>
<rect x="0.5" y="0.5" width="149" height="99" stroke="black"/>
</g>
<defs>
<clipPath id="clip0_5_1383">
<rect width="100" height="100" rx="50" fill="white"/>
</clipPath>
</defs>
</svg>
